<?xml version="1.0" encoding="iso-8859-1"?>
<!-- Generator: Adobe Illustrator 19.0.0, SVG Export Plug-In . SVG Version: 6.00 Build 0)  -->
<svg version="1.1" id="Layer_1" xmlns="http://www.w3.org/2000/svg" xmlns:xlink="http://www.w3.org/1999/xlink" x="0px" y="0px"
	 viewBox="0 0 512 512" style="enable-background:new 0 0 512 512;" xml:space="preserve">
<path style="fill:#CFF09E;" d="M255.999,276.602c-24.827,0-47.38-9.682-64.137-25.452l64.137,159.043l64.137-159.043
	C303.379,266.92,280.827,276.602,255.999,276.602z"/>
<g>
	<path style="fill:#507C5C;" d="M255.999,424.896c-5.998,0-11.395-3.644-13.637-9.205l-64.137-159.043
		c-2.582-6.404-0.36-13.744,5.341-17.64c5.704-3.9,13.347-3.301,18.375,1.432c14.7,13.837,33.9,21.457,54.06,21.457
		s39.36-7.62,54.06-21.457c5.028-4.73,12.671-5.329,18.375-1.432c5.701,3.895,7.923,11.236,5.341,17.64L269.639,415.69
		C267.394,421.253,261.997,424.896,255.999,424.896z M221.668,285.744l34.331,85.131l34.331-85.131
		c-10.951,3.657-22.52,5.561-34.331,5.561S232.619,289.402,221.668,285.744z"/>
	<path style="fill:#507C5C;" d="M163.322,395.146c-7.274,0.001-13.596-5.397-14.562-12.805
		c-2.703-20.728-12.18-29.895-27.883-45.083c-1.178-1.14-2.375-2.298-3.586-3.479c-26.318-25.643-62.365-60.766-62.365-144.319
		c0-53.598,21.322-102.416,60.039-137.464C152.005,18.466,202.093,0,255.999,0s103.994,18.466,141.035,51.996
		c8.396,7.602,16.09,15.975,22.866,24.892c3.847,5.058,7.463,10.379,10.746,15.808c1.631,2.698,3.217,5.486,4.716,8.29
		c2.976,5.572,5.698,11.386,8.086,17.279c1.79,4.417,3.426,8.964,4.863,13.511c5.816,18.39,8.764,37.798,8.764,57.685
		c0,34.884-6.135,63.981-18.757,88.959c-0.744,1.476-1.507,2.928-2.287,4.353c-2.232,4.083-4.694,8.138-7.319,12.049
		c-0.848,1.262-1.701,2.495-2.563,3.707c-3.219,4.516-6.679,8.898-10.576,13.39c-7.057,8.136-14.339,15.205-20.763,21.439
		c-5.827,5.658-15.138,5.517-20.794-0.31c-5.657-5.827-5.517-15.137,0.31-20.794c6.294-6.108,12.8-12.424,19.028-19.604
		c3.278-3.781,6.172-7.442,8.845-11.19c0.706-0.993,1.404-2.001,2.095-3.031c2.125-3.169,4.122-6.455,5.929-9.761
		c0.625-1.144,1.24-2.315,1.842-3.509c10.496-20.773,15.597-45.533,15.597-75.7c0-16.874-2.488-33.3-7.396-48.821
		c-1.204-3.817-2.576-7.629-4.076-11.33c-2-4.935-4.276-9.801-6.769-14.462c-1.256-2.348-2.582-4.682-3.945-6.936
		c-2.745-4.542-5.77-8.99-8.989-13.225c-5.682-7.474-12.137-14.5-19.191-20.885c-31.624-28.626-74.701-44.39-121.299-44.39
		S166.324,45.174,134.701,73.8c-32.48,29.399-50.366,70.476-50.366,115.659c0,71.147,28.412,98.83,53.479,123.254
		c1.188,1.156,2.359,2.29,3.511,3.404c16.749,16.2,32.565,31.5,36.598,62.418c1.05,8.054-4.626,15.433-12.68,16.482
		C164.598,395.105,163.955,395.146,163.322,395.146z"/>
</g>
<path style="fill:#CFF09E;" d="M232.281,497.295h47.434c4.775,0,9.354-1.897,12.73-5.273l16.269-16.269
	c2.538-2.538,4.26-5.776,4.944-9.301l15.455-79.629H182.886l15.455,79.629c0.684,3.523,2.406,6.763,4.944,9.301l16.269,16.269
	C222.928,495.398,227.508,497.295,232.281,497.295z"/>
<g>
	<path style="fill:#507C5C;" d="M279.716,512h-47.434c-8.736,0-16.95-3.401-23.129-9.58l-16.268-16.268
		c-4.626-4.626-7.732-10.468-8.98-16.893l-15.453-79.632c-0.837-4.311,0.296-8.77,3.091-12.158c2.792-3.388,6.954-5.35,11.345-5.35
		h146.225c4.391,0,8.551,1.962,11.345,5.35c2.794,3.388,3.928,7.846,3.091,12.158l-15.453,79.627
		c-1.25,6.429-4.354,12.271-8.98,16.897l-16.268,16.268C296.666,508.599,288.452,512,279.716,512z M200.719,401.53l12.055,62.121
		c0.126,0.646,0.44,1.238,0.907,1.704l16.268,16.268c0.613,0.615,1.463,0.966,2.332,0.966h47.434c0.869,0,1.719-0.351,2.332-0.966
		l16.268-16.268c0.468-0.466,0.781-1.059,0.907-1.709l12.055-62.117H200.719z"/>
	<path style="fill:#507C5C;" d="M356.857,401.27H155.141c-8.12,0-14.705-6.585-14.705-14.705c0-8.12,6.585-14.705,14.705-14.705
		h201.716c8.12,0,14.705,6.585,14.705,14.705C371.562,394.685,364.977,401.27,356.857,401.27z"/>
	<path style="fill:#507C5C;" d="M338.276,456.587H173.722c-8.12,0-14.705-6.585-14.705-14.705s6.585-14.705,14.705-14.705h164.554
		c8.12,0,14.705,6.585,14.705,14.705S346.396,456.587,338.276,456.587z"/>
</g>
<g>
</g>
<g>
</g>
<g>
</g>
<g>
</g>
<g>
</g>
<g>
</g>
<g>
</g>
<g>
</g>
<g>
</g>
<g>
</g>
<g>
</g>
<g>
</g>
<g>
</g>
<g>
</g>
<g>
</g>
</svg>
