<?xml version="1.0"?>
<svg width="512" height="512" xmlns="http://www.w3.org/2000/svg" xmlns:svg="http://www.w3.org/2000/svg" enable-background="new 0 0 512 512" version="1.1" xml:space="preserve">
 <g class="layer">
  <title>Layer 1</title>
  <path d="m256,277.6c-24.83,0 -47.38,-9.68 -64.14,-25.45l64.14,159.04l64.14,-159.04c-16.76,15.77 -39.31,25.45 -64.14,25.45z" fill="#ffaaaa" id="svg_1" transform="matrix(1 0 0 1 0 0)"/>
  <g id="svg_2" transform="matrix(1 0 0 1 0 0)">
   <path d="m256,424.9c-6,0 -11.4,-3.65 -13.64,-9.21l-64.14,-159.04c-2.58,-6.41 -0.36,-13.75 5.35,-17.64c5.7,-3.9 13.34,-3.3 18.37,1.43c14.7,13.84 33.9,21.46 54.06,21.46s39.36,-7.62 54.06,-21.46c5.03,-4.73 12.67,-5.33 18.38,-1.43c5.7,3.89 7.92,11.23 5.34,17.64l-64.14,159.04c-2.25,5.56 -7.64,9.21 -13.64,9.21zm-34.33,-139.16l34.33,85.14l34.33,-85.14c-10.95,3.66 -22.52,5.57 -34.33,5.57s-23.38,-1.91 -34.33,-5.57z" fill="#bf0000" id="svg_3"/>
   <path d="m163.32,395.15c-7.27,0 -13.59,-5.4 -14.56,-12.81c-2.7,-20.73 -12.18,-29.89 -27.88,-45.08c-1.18,-1.14 -2.38,-2.3 -3.59,-3.48c-26.32,-25.64 -62.36,-60.77 -62.36,-144.32c0,-53.6 21.32,-102.42 60.04,-137.46c37.03,-33.53 87.12,-52 141.03,-52s103.99,18.47 141.03,52c8.4,7.6 16.09,15.97 22.87,24.89c3.85,5.06 7.46,10.38 10.75,15.81c1.63,2.69 3.21,5.48 4.71,8.29c2.98,5.57 5.7,11.38 8.09,17.27c1.79,4.42 3.42,8.97 4.86,13.52c5.82,18.39 8.76,37.79 8.76,57.68c0,34.88 -6.13,63.98 -18.75,88.96c-0.75,1.48 -1.51,2.93 -2.29,4.35c-2.23,4.09 -4.69,8.14 -7.32,12.05c-0.85,1.26 -1.7,2.5 -2.56,3.71c-3.22,4.51 -6.68,8.9 -10.58,13.39c-7.05,8.13 -14.34,15.2 -20.76,21.44c-5.83,5.66 -15.14,5.51 -20.79,-0.31c-5.66,-5.83 -5.52,-15.14 0.31,-20.8c6.29,-6.1 12.8,-12.42 19.02,-19.6c3.28,-3.78 6.18,-7.44 8.85,-11.19c0.71,-0.99 1.4,-2 2.09,-3.03c2.13,-3.17 4.13,-6.46 5.93,-9.76c0.63,-1.15 1.24,-2.32 1.85,-3.51c10.49,-20.77 15.59,-45.53 15.59,-75.7c0,-16.88 -2.49,-33.3 -7.39,-48.82c-1.21,-3.82 -2.58,-7.63 -4.08,-11.33c-2,-4.94 -4.28,-9.8 -6.77,-14.46c-1.25,-2.35 -2.58,-4.69 -3.94,-6.94c-2.75,-4.54 -5.77,-8.99 -8.99,-13.23c-5.68,-7.47 -12.14,-14.5 -19.19,-20.88c-31.63,-28.63 -74.7,-44.39 -121.3,-44.39s-89.68,15.76 -121.3,44.39c-32.48,29.4 -50.37,70.48 -50.37,115.66c0,71.15 28.42,98.83 53.48,123.25c1.19,1.16 2.36,2.29 3.51,3.41c16.75,16.2 32.57,31.5 36.6,62.42c1.05,8.05 -4.62,15.43 -12.68,16.48c-0.64,0.09 -1.28,0.13 -1.92,0.13z" fill="#bf0000" id="svg_4"/>
  </g>
  <path d="m232.28,497.3l47.44,0c4.77,0 9.35,-1.9 12.73,-5.28l16.26,-16.27c2.54,-2.54 4.26,-5.77 4.95,-9.3l15.45,-79.63l-146.22,0l15.45,79.63c0.69,3.53 2.41,6.76 4.94,9.3l16.27,16.27c3.38,3.38 7.96,5.28 12.73,5.28z" fill="#ffaaaa" id="svg_5"/>
  <g id="svg_6">
   <path d="m279.72,512l-47.44,0c-8.73,0 -16.95,-3.4 -23.13,-9.58l-16.26,-16.27c-4.63,-4.62 -7.74,-10.47 -8.98,-16.89l-15.46,-79.63c-0.83,-4.31 0.3,-8.77 3.09,-12.16c2.8,-3.39 6.96,-5.35 11.35,-5.35l146.22,0c4.39,0 8.55,1.96 11.35,5.35c2.79,3.39 3.93,7.84 3.09,12.16l-15.45,79.62c-1.25,6.43 -4.36,12.28 -8.98,16.9l-16.27,16.27c-6.18,6.18 -14.4,9.58 -23.13,9.58zm-79,-110.47l12.05,62.12c0.13,0.65 0.44,1.24 0.91,1.7l16.27,16.27c0.61,0.62 1.46,0.97 2.33,0.97l47.44,0c0.86,0 1.71,-0.35 2.33,-0.97l16.27,-16.27c0.46,-0.46 0.78,-1.05 0.9,-1.7l12.06,-62.12l-110.56,0z" fill="#bf0000" id="svg_7"/>
   <path d="m356.86,401.27l-201.72,0c-8.12,0 -14.7,-6.58 -14.7,-14.71c0,-8.12 6.58,-14.7 14.7,-14.7l201.72,0c8.12,0 14.7,6.58 14.7,14.7c0,8.13 -6.58,14.71 -14.7,14.71z" fill="#bf0000" id="svg_8"/>
   <path d="m338.28,456.59l-164.56,0c-8.12,0 -14.7,-6.59 -14.7,-14.71s6.58,-14.7 14.7,-14.7l164.56,0c8.12,0 14.7,6.58 14.7,14.7s-6.58,14.71 -14.7,14.71z" fill="#bf0000" id="svg_9"/>
  </g>
  <g id="svg_10"/>
  <g id="svg_11"/>
  <g id="svg_12"/>
  <g id="svg_13"/>
  <g id="svg_14"/>
  <g id="svg_15"/>
  <g id="svg_16"/>
  <g id="svg_17"/>
  <g id="svg_18"/>
  <g id="svg_19"/>
  <g id="svg_20"/>
  <g id="svg_21"/>
  <g id="svg_22"/>
  <g id="svg_23"/>
  <g id="svg_24"/>
 </g>
</svg>